<svg width="28" height="28" viewBox="0 0 28 28" fill="none" xmlns="http://www.w3.org/2000/svg">
<path d="M13.9999 2.3335C7.56692 2.3335 2.33325 7.56716 2.33325 14.0002V18.8337C2.33325 20.0283 3.37975 21.0002 4.66659 21.0002H5.83325C6.14267 21.0002 6.43942 20.8772 6.65821 20.6585C6.877 20.4397 6.99992 20.1429 6.99992 19.8335V13.8333C6.99992 13.5239 6.877 13.2272 6.65821 13.0084C6.43942 12.7896 6.14267 12.6667 5.83325 12.6667H4.77392C5.42259 8.15166 9.30759 4.66683 13.9999 4.66683C18.6923 4.66683 22.5773 8.15166 23.2259 12.6667H22.1666C21.8572 12.6667 21.5604 12.7896 21.3416 13.0084C21.1228 13.2272 20.9999 13.5239 20.9999 13.8333V21.0002C20.9999 22.287 19.9534 23.3335 18.6666 23.3335H16.3333V22.1668H11.6666V25.6668H18.6666C21.2403 25.6668 23.3333 23.5738 23.3333 21.0002C24.6201 21.0002 25.6666 20.0283 25.6666 18.8337V14.0002C25.6666 7.56716 20.4329 2.3335 13.9999 2.3335Z" fill="#5E5E5F"/>
</svg>
