<svg width="20" height="20" viewBox="0 0 20 20" fill="none" xmlns="http://www.w3.org/2000/svg">
<path d="M11.6675 1.6665H5.00029C4.55823 1.6665 4.13427 1.84211 3.82169 2.1547C3.5091 2.46728 3.3335 2.89124 3.3335 3.3333V16.6676C3.3335 17.1097 3.5091 17.5337 3.82169 17.8462C4.13427 18.1588 4.55823 18.3344 5.00029 18.3344H15.0011C15.4431 18.3344 15.8671 18.1588 16.1797 17.8462C16.4922 17.5337 16.6678 17.1097 16.6678 16.6676V6.66688L11.6675 1.6665Z" stroke="#858585" stroke-width="1.66678" stroke-linecap="round" stroke-linejoin="round"/>
<path d="M13.3351 14.1675H6.66711" stroke="#858585" stroke-width="1.66678" stroke-linecap="round" stroke-linejoin="round"/>
<path d="M13.3351 10.834H6.66711" stroke="#858585" stroke-width="1.66678" stroke-linecap="round" stroke-linejoin="round"/>
<path d="M8.33412 7.5H7.50062H6.66711" stroke="#858585" stroke-width="1.66678" stroke-linecap="round" stroke-linejoin="round"/>
<path d="M11.6672 1.6665V6.66751H16.6682" stroke="#858585" stroke-width="1.66678" stroke-linecap="round" stroke-linejoin="round"/>
</svg>
