<svg width="20" height="20" viewBox="0 0 20 20" fill="none" xmlns="http://www.w3.org/2000/svg">
<g clip-path="url(#clip0_183_195)">
<path d="M15.4177 17.502C16.5686 17.502 17.5015 16.569 17.5015 15.4182C17.5015 14.2674 16.5686 13.3345 15.4177 13.3345C14.2669 13.3345 13.334 14.2674 13.334 15.4182C13.334 16.569 14.2669 17.502 15.4177 17.502Z" stroke="#808080" stroke-width="1.66678" stroke-linecap="round" stroke-linejoin="round"/>
<path d="M4.58375 17.502C5.73458 17.502 6.6675 16.569 6.6675 15.4182C6.6675 14.2674 5.73458 13.3345 4.58375 13.3345C3.43293 13.3345 2.5 14.2674 2.5 15.4182C2.5 16.569 3.43293 17.502 4.58375 17.502Z" stroke="#808080" stroke-width="1.66678" stroke-linecap="round" stroke-linejoin="round"/>
<path d="M13.334 6.66699H16.668L19.1685 9.1675V13.335H13.334V6.66699Z" stroke="#808080" stroke-width="1.66678" stroke-linecap="round" stroke-linejoin="round"/>
<path d="M13.3344 2.50049H0.833374V13.3347H13.3344V2.50049Z" stroke="#808080" stroke-width="1.66678" stroke-linecap="round" stroke-linejoin="round"/>
</g>
<defs>
<clipPath id="clip0_183_195">
<rect width="20.0017" height="20.0017" fill="white"/>
</clipPath>
</defs>
</svg>
