<svg width="20" height="21" viewBox="0 0 20 21" fill="none" xmlns="http://www.w3.org/2000/svg">
<g clip-path="url(#clip0_183_199)">
<path d="M19.1585 17.9923V16.3253C19.1579 15.5865 18.912 14.8689 18.4595 14.2851C18.0069 13.7013 17.3732 13.2843 16.658 13.0996" stroke="#808080" stroke-width="1.66678" stroke-linecap="round" stroke-linejoin="round"/>
<path d="M14.158 17.9916V16.3248C14.158 15.4407 13.8067 14.5928 13.1816 13.9676C12.5564 13.3424 11.7085 12.9912 10.8243 12.9912H4.15711C3.27297 12.9912 2.42506 13.3424 1.79988 13.9676C1.17471 14.5928 0.823486 15.4407 0.823486 16.3248V17.9916" stroke="#808080" stroke-width="1.66678" stroke-linecap="round" stroke-linejoin="round"/>
<path d="M13.3243 3.09863C14.0415 3.28225 14.6771 3.69934 15.1311 4.28413C15.585 4.86892 15.8314 5.58816 15.8314 6.32845C15.8314 7.06874 15.585 7.78798 15.1311 8.37277C14.6771 8.95756 14.0415 9.37464 13.3243 9.55827" stroke="#808080" stroke-width="1.66678" stroke-linecap="round" stroke-linejoin="round"/>
<path d="M7.49111 9.65824C9.33243 9.65824 10.8251 8.16556 10.8251 6.32424C10.8251 4.48292 9.33243 2.99023 7.49111 2.99023C5.64979 2.99023 4.1571 4.48292 4.1571 6.32424C4.1571 8.16556 5.64979 9.65824 7.49111 9.65824Z" stroke="#808080" stroke-width="1.66678" stroke-linecap="round" stroke-linejoin="round"/>
</g>
<defs>
<clipPath id="clip0_183_199">
<rect width="20.0017" height="20.0017" fill="white" transform="translate(-0.00976562 0.490234)"/>
</clipPath>
</defs>
</svg>
