<svg width="34" height="34" viewBox="0 0 34 34" fill="none" xmlns="http://www.w3.org/2000/svg">
<g clip-path="url(#clip0_267_561)">
<path d="M23.7986 15.7397L17.1557 23.9742C15.8434 25.6009 13.4847 26.0879 11.7403 24.9376C11.2729 24.6319 10.8749 24.2316 10.5719 23.7625C10.2689 23.2935 10.0677 22.7661 9.98116 22.2144C9.89467 21.6627 9.92485 21.099 10.0698 20.5597C10.2147 20.0204 10.4711 19.5175 10.8224 19.0835L18.583 9.46358C19.4056 8.444 20.8843 8.10802 21.9778 8.82308C22.272 9.01361 22.5229 9.26388 22.7141 9.55765C22.9054 9.85143 23.0327 10.1821 23.0878 10.5283C23.143 10.8745 23.1247 11.2284 23.0342 11.567C22.9437 11.9057 22.783 12.2215 22.5625 12.494L15.9698 20.6663C15.6244 21.0943 14.9916 21.162 14.5636 20.8167C14.1355 20.4714 14.0678 19.8386 14.4131 19.4105L19.9071 12.6003C20.1645 12.2812 20.1134 11.8031 19.7943 11.5457C19.4752 11.2882 18.997 11.3394 18.7396 11.6585L13.3336 18.3597C12.5111 19.3793 12.4955 20.8957 13.4257 21.8131C13.6741 22.0604 13.9718 22.2527 14.2994 22.3774C14.627 22.5022 14.9771 22.5567 15.3271 22.5374C15.6771 22.518 16.0191 22.4253 16.331 22.2652C16.6428 22.1051 16.9175 21.8812 17.1372 21.6081L23.6232 13.5682C24.9355 11.9415 24.9125 9.53317 23.4192 8.07152C23.0211 7.68042 22.5455 7.37696 22.0231 7.18066C21.5006 6.98436 20.9429 6.89955 20.3857 6.93169C19.8286 6.96384 19.2843 7.11222 18.7879 7.3673C18.2915 7.62238 17.854 7.97851 17.5035 8.4128L9.79939 17.9627C7.99738 20.1964 8.01818 23.5152 10.0746 25.5211C12.4469 27.8203 16.1946 27.5545 18.2164 25.0484L24.9661 16.6815C25.2235 16.3624 25.1724 15.8843 24.8533 15.6269C24.5342 15.3694 24.0561 15.4206 23.7986 15.7397Z" fill="black" fill-opacity="0.48"/>
</g>
<defs>
<clipPath id="clip0_267_561">
<rect width="24" height="24" fill="white" transform="translate(15.1948 0.125977) rotate(38.8939)"/>
</clipPath>
</defs>
</svg>
