<?xml version="1.0" encoding="UTF-8"?>
<svg width="120" height="120" viewBox="0 0 120 120" fill="none" xmlns="http://www.w3.org/2000/svg">
  <circle cx="60" cy="60" r="60" fill="#EBF3FE"/>
  <path d="M60 100C82.0914 100 100 82.0914 100 60C100 37.9086 82.0914 20 60 20C37.9086 20 20 37.9086 20 60C20 82.0914 37.9086 100 60 100Z" stroke="#1E40AF" stroke-width="4"/>
  <path d="M60 85C73.8071 85 85 73.8071 85 60C85 46.1929 73.8071 35 60 35C46.1929 35 35 46.1929 35 60C35 73.8071 46.1929 85 60 85Z" stroke="#1E40AF" stroke-width="3"/>
  <path d="M75 60C75 68.2843 68.2843 75 60 75C51.7157 75 45 68.2843 45 60C45 51.7157 51.7157 45 60 45C68.2843 45 75 51.7157 75 60Z" fill="#1E40AF"/>
</svg>