<svg width="30" height="30" viewBox="0 0 30 30" fill="none" xmlns="http://www.w3.org/2000/svg">
<path d="M15 27.5C14.3125 27.5 13.7242 27.2554 13.235 26.7663C12.7458 26.2771 12.5008 25.6883 12.5 25H17.5C17.5 25.6875 17.2554 26.2763 16.7663 26.7663C16.2771 27.2563 15.6883 27.5008 15 27.5ZM5 23.75V21.25H7.5V12.5C7.5 10.7708 8.02083 9.23459 9.0625 7.89125C10.1042 6.54792 11.4583 5.6675 13.125 5.25V4.375C13.125 3.85417 13.3075 3.41167 13.6725 3.0475C14.0375 2.68334 14.48 2.50084 15 2.5C15.52 2.49917 15.9629 2.68167 16.3287 3.0475C16.6946 3.41334 16.8767 3.85584 16.875 4.375V4.78125C16.6667 5.19792 16.5104 5.63542 16.4062 6.09375C16.3021 6.55209 16.25 7.02084 16.25 7.5C16.25 9.22917 16.8596 10.7033 18.0788 11.9225C19.2979 13.1417 20.7717 13.7508 22.5 13.75V21.25H25V23.75H5ZM22.5 11.25C21.4583 11.25 20.5729 10.8854 19.8438 10.1563C19.1146 9.42709 18.75 8.54167 18.75 7.5C18.75 6.45834 19.1146 5.57292 19.8438 4.84375C20.5729 4.11459 21.4583 3.75 22.5 3.75C23.5417 3.75 24.4271 4.11459 25.1562 4.84375C25.8854 5.57292 26.25 6.45834 26.25 7.5C26.25 8.54167 25.8854 9.42709 25.1562 10.1563C24.4271 10.8854 23.5417 11.25 22.5 11.25Z" fill="#5E5E5F"/>
<rect x="18" y="3" width="9" height="9" rx="4.5" fill="#EE5D5D"/>
</svg>
