<svg width="24" height="24" viewBox="0 0 24 24" fill="none" xmlns="http://www.w3.org/2000/svg">
<path d="M8.83325 15.6252C8.83325 15.2494 8.98251 14.8891 9.24818 14.6234C9.51386 14.3578 9.8742 14.2085 10.2499 14.2085H10.9583C11.334 14.2085 11.6943 14.3578 11.96 14.6234C12.2257 14.8891 12.3749 15.2494 12.3749 15.6252V17.7502C12.3749 18.1259 12.2257 18.4862 11.96 18.7519C11.6943 19.0176 11.334 19.1668 10.9583 19.1668H10.2499C9.8742 19.1668 9.51386 19.0176 9.24818 18.7519C8.98251 18.4862 8.83325 18.1259 8.83325 17.7502V15.6252ZM16.6249 15.6252C16.6249 15.2494 16.7742 14.8891 17.0399 14.6234C17.3055 14.3578 17.6659 14.2085 18.0416 14.2085H18.7499C19.1256 14.2085 19.486 14.3578 19.7517 14.6234C20.0173 14.8891 20.1666 15.2494 20.1666 15.6252V17.7502C20.1666 18.1259 20.0173 18.4862 19.7517 18.7519C19.486 19.0176 19.1256 19.1668 18.7499 19.1668H18.0416C17.6659 19.1668 17.3055 19.0176 17.0399 18.7519C16.7742 18.4862 16.6249 18.1259 16.6249 17.7502V15.6252Z" stroke="black" stroke-width="1.25" stroke-linecap="round" stroke-linejoin="round"/>
<path d="M8.83325 15.6252V13.5002C8.83325 11.9973 9.43027 10.5559 10.493 9.49322C11.5557 8.43052 12.997 7.8335 14.4999 7.8335C16.0028 7.8335 17.4442 8.43052 18.5069 9.49322C19.5696 10.5559 20.1666 11.9973 20.1666 13.5002V15.6252" stroke="black" stroke-width="1.25" stroke-linecap="round" stroke-linejoin="round"/>
</svg>
