<svg width="24" height="24" viewBox="0 0 24 24" fill="none" xmlns="http://www.w3.org/2000/svg">
<path d="M12 21.25C17.1086 21.25 21.25 17.1086 21.25 12C21.25 6.89137 17.1086 2.75 12 2.75C6.89137 2.75 2.75 6.89137 2.75 12C2.75 17.1086 6.89137 21.25 12 21.25Z" stroke="black" stroke-opacity="0.48" stroke-width="1.5" stroke-linecap="round" stroke-linejoin="round"/>
<path d="M9 10.75C9.69036 10.75 10.25 10.1904 10.25 9.5C10.25 8.80964 9.69036 8.25 9 8.25C8.30964 8.25 7.75 8.80964 7.75 9.5C7.75 10.1904 8.30964 10.75 9 10.75Z" fill="black" fill-opacity="0.48"/>
<path d="M15 10.75C15.6904 10.75 16.25 10.1904 16.25 9.5C16.25 8.80964 15.6904 8.25 15 8.25C14.3096 8.25 13.75 8.80964 13.75 9.5C13.75 10.1904 14.3096 10.75 15 10.75Z" fill="black" fill-opacity="0.48"/>
<path d="M15.4639 14.25C15.1128 14.858 14.6079 15.3629 13.9998 15.714C13.3917 16.065 12.702 16.2498 11.9999 16.2498C11.2978 16.2498 10.608 16.065 9.99998 15.714C9.39192 15.3629 8.88698 14.858 8.53589 14.25" stroke="black" stroke-opacity="0.48" stroke-width="1.5" stroke-linecap="round" stroke-linejoin="round"/>
</svg>
