<svg width="114" height="140" viewBox="0 0 114 140" fill="none" xmlns="http://www.w3.org/2000/svg">
<path d="M4.959 11.8977L57 0.333008L109.041 11.8977C110.447 12.2103 111.705 12.9931 112.607 14.1169C113.508 15.2407 114 16.6383 114 18.079V81.33C114 87.5857 112.455 93.7445 109.503 99.2597C106.551 104.775 102.282 109.476 97.0773 112.946L57 139.666L16.9227 112.946C11.7184 109.477 7.45092 104.777 4.49887 99.2625C1.54683 93.7484 0.00149692 87.5909 0 81.3363V18.079C0.000247239 16.6383 0.491707 15.2407 1.39327 14.1169C2.29483 12.9931 3.5526 12.2103 4.959 11.8977Z" fill="#049996"/>
</svg>
