<svg width="106" height="32" viewBox="0 0 106 32" fill="none" xmlns="http://www.w3.org/2000/svg">
<path d="M7 11.94L5.66802 11L0 15L5.66802 19L7 18.06L2.67341 15L7 11.94Z" fill="#EDF2F7" fill-opacity="0.3"/>
<path d="M100.332 11L99 11.94L103.327 15L99 18.06L100.332 19L106 15L100.332 11Z" fill="#CBD5E0"/>
<circle cx="54" cy="16" r="4" fill="#D9D9D9"/>
<circle cx="29.0105" cy="15.6821" r="1.85789" fill="#EDF2F7" fill-opacity="0.3"/>
<circle cx="79.5997" cy="15.6821" r="1.85789" fill="#EDF2F7" fill-opacity="0.3"/>
<mask id="path-6-inside-1_169_10070" fill="white">
<path d="M45.6117 8.70394C43.958 10.7643 43.0898 13.345 43.1619 15.9859C43.234 18.6269 44.2418 21.1563 46.0055 23.1233C47.7692 25.0903 50.1742 26.367 52.7916 26.7257C55.4091 27.0844 58.0689 26.5018 60.2967 25.0818L58.7254 22.6165C57.0818 23.6641 55.1196 24.0939 53.1885 23.8293C51.2575 23.5647 49.4833 22.6228 48.1821 21.1717C46.8809 19.7205 46.1375 17.8544 46.0843 15.9061C46.031 13.9578 46.6715 12.0539 47.8916 10.5339L45.6117 8.70394Z"/>
</mask>
<path d="M45.6117 8.70394C43.958 10.7643 43.0898 13.345 43.1619 15.9859C43.234 18.6269 44.2418 21.1563 46.0055 23.1233C47.7692 25.0903 50.1742 26.367 52.7916 26.7257C55.4091 27.0844 58.0689 26.5018 60.2967 25.0818L58.7254 22.6165C57.0818 23.6641 55.1196 24.0939 53.1885 23.8293C51.2575 23.5647 49.4833 22.6228 48.1821 21.1717C46.8809 19.7205 46.1375 17.8544 46.0843 15.9061C46.031 13.9578 46.6715 12.0539 47.8916 10.5339L45.6117 8.70394Z" stroke="#D9D9D9" stroke-width="4" mask="url(#path-6-inside-1_169_10070)"/>
</svg>
