<svg width="16" height="16" viewBox="0 0 16 16" fill="none" xmlns="http://www.w3.org/2000/svg">
<g clip-path="url(#clip0_267_564)">
<path d="M10.8571 7.42843C10.8571 8.18619 10.5561 8.91292 10.0203 9.44874C9.48445 9.98456 8.75773 10.2856 7.99997 10.2856C7.2422 10.2856 6.51548 9.98456 5.97966 9.44874C5.44384 8.91292 5.14282 8.18619 5.14282 7.42843V3.42843C5.14282 2.67067 5.44384 1.94395 5.97966 1.40813C6.51548 0.872309 7.2422 0.571289 7.99997 0.571289C8.75773 0.571289 9.48445 0.872309 10.0203 1.40813C10.5561 1.94395 10.8571 2.67067 10.8571 3.42843V7.42843Z" stroke="white" stroke-width="1.5" stroke-linecap="round" stroke-linejoin="round"/>
<path d="M13.7142 8C13.7157 8.67579 13.5837 9.34523 13.3258 9.96987C13.0679 10.5945 12.6891 11.1621 12.2113 11.6399C11.7334 12.1178 11.1659 12.4965 10.5412 12.7544C9.9166 13.0124 9.24716 13.1444 8.57137 13.1429H7.42851C6.75272 13.1444 6.08329 13.0124 5.45865 12.7544C4.83401 12.4965 4.26646 12.1178 3.78861 11.6399C3.31075 11.1621 2.93198 10.5945 2.67407 9.96987C2.41615 9.34523 2.28415 8.67579 2.28566 8M7.99994 13.1429V15.4286" stroke="white" stroke-width="1.5" stroke-linecap="round" stroke-linejoin="round"/>
</g>
<defs>
<clipPath id="clip0_267_564">
<rect width="16" height="16" fill="white"/>
</clipPath>
</defs>
</svg>
