<svg width="14" height="14" viewBox="0 0 14 14" fill="none" xmlns="http://www.w3.org/2000/svg">
<path d="M1.79976 13.3395C3.60976 12.0895 4.81976 10.1795 5.70976 7.83952C6.60976 5.50952 7.56976 3.50952 7.14976 1.20952C7.08976 0.849522 6.57976 0.479522 6.31976 0.509522C5.29976 0.569522 5.36976 1.71952 5.46976 2.40952C5.70976 4.11952 7.02976 6.10952 8.30976 7.96952C9.57976 9.83952 10.6298 10.1295 12.0898 10.2295C12.5898 10.2595 13.3398 10.0895 13.4598 9.64952C14.2298 6.84952 4.43976 9.10952 1.17976 11.7295C0.77976 12.0595 0.31976 12.7295 0.57976 13.1895C0.77976 13.5495 1.44976 13.5895 1.80976 13.3395H1.79976Z" stroke="#E83131" stroke-linecap="round" stroke-linejoin="round"/>
</svg>
