<?xml version="1.0" encoding="UTF-8"?>
<svg width="500" height="300" viewBox="0 0 500 300" fill="none" xmlns="http://www.w3.org/2000/svg">
  <!-- Background Elements -->
  <rect x="50" y="50" width="400" height="200" rx="20" fill="#EBF3FE" opacity="0.3"/>
  
  <!-- People -->
  <circle cx="150" cy="180" r="35" fill="#FCA5A5"/>
  <rect x="130" y="220" width="40" height="60" rx="10" fill="#FCA5A5"/>
  
  <circle cx="250" cy="170" r="30" fill="#BFDBFE"/>
  <rect x="235" y="205" width="30" height="50" rx="8" fill="#BFDBFE"/>
  
  <circle cx="350" cy="180" r="35" fill="#A7F3D0"/>
  <rect x="330" y="220" width="40" height="60" rx="10" fill="#A7F3D0"/>
  
  <!-- Desk -->
  <rect x="100" y="260" width="300" height="20" rx="5" fill="#1E40AF" opacity="0.8"/>
  <rect x="120" y="280" width="260" height="10" rx="3" fill="#1E40AF" opacity="0.6"/>
  
  <!-- Computer -->
  <rect x="220" y="190" width="60" height="40" rx="3" fill="#1E40AF"/>
  <rect x="225" y="195" width="50" height="30" rx="2" fill="white"/>
  <rect x="245" y="230" width="10" height="20" fill="#1E40AF"/>
  <rect x="235" y="250" width="30" height="5" rx="2" fill="#1E40AF"/>
  
  <!-- Papers flying -->
  <rect x="180" y="130" width="25" height="30" rx="2" transform="rotate(-15 180 130)" fill="white" stroke="#1E40AF" stroke-width="1"/>
  <rect x="280" y="110" width="25" height="30" rx="2" transform="rotate(15 280 110)" fill="white" stroke="#1E40AF" stroke-width="1"/>
  <rect x="320" y="140" width="25" height="30" rx="2" transform="rotate(-10 320 140)" fill="white" stroke="#1E40AF" stroke-width="1"/>
</svg>